<svg viewBox="0 0 32 32" xmlns="http://www.w3.org/2000/svg">
  <defs>
    <linearGradient id="gradient" x1="14.3" y1="15.9" x2="6.1" y2="24.8">
      <stop stop-color="#0052CC"/>
      <stop offset="0.923" stop-color="#2684FF"/>
    </linearGradient>
  </defs>
  <path d="M11.1 14.1c-.1-.2-.4-.3-.6-.3s-.4.1-.5.4L4.1 26c-.1.2-.1.5 0 .7.1.2.4.3.6.3h8.2c.3 0 .5-.2.6-.4 1.8-3.7.7-9.2-2.4-12.5z" fill="url(#gradient)"/>
  <path d="M15.4 3.4C12.5 8 12.1 13.8 14.5 18.7l3.9 7.9c.1.2.4.4.6.4h8.2c.2 0 .5-.1.6-.3.1-.2.1-.5 0-.7L16.6 3.4c-.1-.2-.3-.4-.6-.4s-.5.1-.6.4z" fill="#2684FF"/>
</svg>